# xmcd CD database file
#
# Track frame offsets:
#	150
#	11378
#	26214
#	41285
#	55877
#	69365
#	82189
#	94967
#	108328
#	118394
#	132708
#	145533
#	159770
#	174309
#	188337
#	203023
#	216311
#	230115
#	242638
#	273298
#	287759
#
# Disc length: 4016 seconds
#
# Revision: 0
# Processed by: cddbd v1.5.2PL0 Copyright (c) Steve Scherf et al.
# Submitted via: CDex 1.70beta2
#
DISCID=290fae15
DTITLE=Red Norvo - Giants of Jazz 1
DYEAR=1900
DGENRE=Jazz
TTITLE0=Knockin’ on Wood: Red Norvo 
TTITLE1=In a Mist: Red Norvo
TTITLE2=Dance of the Octopus: Red Norvo 
TTITLE3=Moon Country: Hoagy Carmichael and His Orchestra
TTITLE4=Old Fashioned Love: Red Norvo and His Swing Septet
TTITLE5=Honeysuckle Rose: Red Norvo and His Swing Octet
TTITLE6=Bughouse: Red Norvo and His Swing Octet
TTITLE7=Blues in E Flat: Red Norvo and His Swing Octet 
TTITLE8=Gramercy Square: Red Norvo and His Swing Sextette 
TTITLE9=Decca Stomp: Red Norvo and His Swing Sextette 
TTITLE10=I Got Rhythm: Kenneth “Red” Norvo and His Swing Sextette 
TTITLE11=Lady Be Good: Kenneth “Red” Norvo and His Swing Sextette 
TTITLE12=A Porter’s Love Song to a Chambermaid: Red Norvo and His Orchestra
TTITLE13=Smoke Dreams: Red Norvo and His Orchestra
TTITLE14=Remember: Red Norvo and His Orchestra
TTITLE15=I Would Do Anything for You: Red Norvo and His Orchestra 
TTITLE16=Ain’t Misbehavin’: Teddy Wilson Quartet
TTITLE17=Ain’t Misbehavin’: Teddy Wilson Quartet
TTITLE18=Just a Mood (Blue Mood): Teddy Wilson Quartet
TTITLE19=Honeysuckle Rose: Teddy Wilson Quartet
TTITLE20=Russian Lullaby: Red Norvo and His Orchestra
EXTD=
EXTT0=
EXTT1=
EXTT2=
EXTT3=
EXTT4=
EXTT5=
EXTT6=
EXTT7=
EXTT8=
EXTT9=
EXTT10=
EXTT11=
EXTT12=
EXTT13=
EXTT14=
EXTT15=
EXTT16=
EXTT17=
EXTT18=
EXTT19=
EXTT20=
PLAYORDER=
